HIERARCHY
ROOT Hips
{
 OFFSET 0.000000 0.000000 0.000000
 CHANNELS 6 Xposition Yposition Zposition Yrotation Xrotation Zrotation
 JOINT Chest
 {
  OFFSET 0.000000 9.585900 0.002600
  CHANNELS 3 Yrotation Xrotation Zrotation
  JOINT Chest2
  {
   OFFSET 0.000000 9.601200 -0.005300
   CHANNELS 3 Yrotation Xrotation Zrotation
   JOINT Chest3
   {
    OFFSET 0.000000 9.561800 0.000000
    CHANNELS 3 Yrotation Xrotation Zrotation
    JOINT Chest4
    {
     OFFSET 0.000000 9.552100 0.000000
     CHANNELS 3 Yrotation Xrotation Zrotation
     JOINT Neck
     {
      OFFSET 0.000000 14.453000 0.000000
      CHANNELS 3 Yrotation Xrotation Zrotation
      JOINT Head
      {
       OFFSET 0.000000 8.936500 -0.011300
       CHANNELS 3 Yrotation Xrotation Zrotation
       End Site
       {
        OFFSET 0.000000 17.073600 -0.006000
       }
      }
     }
     JOINT RightCollar
     {
      OFFSET -2.921100 9.558500 0.000000
      CHANNELS 3 Yrotation Xrotation Zrotation
      JOINT RightShoulder
      {
       OFFSET -13.519700 0.000000 0.000000
       CHANNELS 3 Yrotation Xrotation Zrotation
       JOINT RightElbow
       {
        OFFSET 0.000000 -29.696600 0.000000
        CHANNELS 3 Yrotation Xrotation Zrotation
        JOINT RightWrist
        {
         OFFSET 0.000000 -24.004700 0.000000
         CHANNELS 3 Yrotation Xrotation Zrotation
         End Site
         {
          OFFSET 0.000000 -17.728500 0.000000
         }
        }
       }
      }
     }
     JOINT LeftCollar
     {
      OFFSET 2.921100 9.558500 0.000000
      CHANNELS 3 Yrotation Xrotation Zrotation
      JOINT LeftShoulder
      {
       OFFSET 13.519700 0.000000 0.000000
       CHANNELS 3 Yrotation Xrotation Zrotation
       JOINT LeftElbow
       {
        OFFSET 0.000000 -29.696600 0.000000
        CHANNELS 3 Yrotation Xrotation Zrotation
        JOINT LeftWrist
        {
         OFFSET 0.000000 -24.004700 0.000000
         CHANNELS 3 Yrotation Xrotation Zrotation
         End Site
         {
          OFFSET 0.000000 -17.728500 0.000000
         }
        }
       }
      }
     }
    }
   }
  }
 }
 JOINT RightHip
 {
  OFFSET -7.771700 -0.012900 -0.001300
  CHANNELS 3 Yrotation Xrotation Zrotation
  JOINT RightKnee
  {
   OFFSET 0.000000 -40.869800 0.001200
   CHANNELS 3 Yrotation Xrotation Zrotation
   JOINT RightAnkle
   {
    OFFSET 0.000000 -39.717900 0.002100
    CHANNELS 3 Yrotation Xrotation Zrotation
    JOINT RightToe
    {
     OFFSET 0.000000 -4.965400 11.033500
     CHANNELS 3 Yrotation Xrotation Zrotation
     End Site
     {
      OFFSET 0.000000 -1.423100 5.872300
     }
    }
   }
  }
 }
 JOINT LeftHip
 {
  OFFSET 7.771700 -0.012900 -0.001300
  CHANNELS 3 Yrotation Xrotation Zrotation
  JOINT LeftKnee
  {
   OFFSET 0.000000 -40.869800 0.001200
   CHANNELS 3 Yrotation Xrotation Zrotation
   JOINT LeftAnkle
   {
    OFFSET 0.000000 -39.717900 0.002100
    CHANNELS 3 Yrotation Xrotation Zrotation
    JOINT LeftToe
    {
     OFFSET 0.000000 -4.965400 11.033500
     CHANNELS 3 Yrotation Xrotation Zrotation
     End Site
     {
      OFFSET 0.000000 -1.423100 5.872300
     }
    }
   }
  }
 }
}
MOTION
Frames: 5
Frame Time: 0.008333
-191.094817 49.136506 11.064499 178.444572 -31.300536 -4.034503 0.330860 19.151982 2.259914 0.007875 2.259590 0.234432 0.015886 3.724077 0.385609 0.335899 16.547483 1.813135 2.887653 15.990917 -2.619671 6.337363 -5.833131 -5.871229 -2.789495 -2.491004 -3.086710 3.462291 -10.421580 -12.829826 -41.614724 -55.273148 92.000420 5.902525 8.351246 -16.527622 -0.884251 -2.628206 2.561869 -6.433513 -5.537495 15.053633 106.710523 -77.566622 -142.468677 0.264501 14.147309 8.639865 -2.622303 -52.631095 -5.888252 -152.920606 80.166905 -140.397963 -30.005108 -4.676796 -0.760714 -0.061694 -12.022640 0.259576 -14.816022 -55.052864 18.911374 -70.393419 65.603329 -76.038796 30.955747 8.719137 15.954671 -0.032703 -0.180004 0.011647
-191.086221 49.150089 11.074338 178.455006 -31.276262 -4.043543 0.325953 19.130843 2.268798 0.012260 2.262384 0.238341 0.025280 3.730024 0.393535 0.327151 16.547770 1.813866 2.888879 15.999834 -2.620507 6.341231 -5.809885 -5.861986 -2.788822 -2.502825 -3.083588 3.493324 -10.405244 -12.798525 -41.646191 -55.318231 92.046304 5.893218 8.377729 -16.589496 -0.884952 -2.633406 2.580157 -6.425495 -5.530735 15.038925 106.595930 -77.578475 -142.354385 0.310964 14.120611 8.624772 -2.646220 -52.650933 -5.882371 -153.151455 80.210590 -140.585700 -30.074815 -4.703828 -0.810964 -0.038795 -12.012887 0.269607 -14.841080 -55.071595 18.928532 -70.352985 65.598095 -75.991143 30.965593 8.755399 15.950656 -0.037009 -0.198776 0.010681
-191.081858 49.162310 11.081819 178.466661 -31.254910 -4.028005 0.318710 19.121974 2.266531 0.011511 2.262221 0.238259 0.024007 3.729851 0.393427 0.323800 16.548706 1.811908 2.915576 16.046326 -2.595468 6.321987 -5.824909 -5.876903 -2.789551 -2.517783 -3.086004 3.507679 -10.394145 -12.783396 -41.646806 -55.340699 92.052237 5.909284 8.385645 -16.587624 -0.881112 -2.642506 2.602301 -6.391114 -5.454149 15.038737 106.713205 -77.542776 -142.496538 0.307416 14.079638 8.619939 -2.676153 -52.675818 -5.881064 -153.157623 80.219012 -140.607903 -30.073081 -4.713090 -0.828231 -0.029868 -12.006346 0.270471 -14.840507 -55.088261 18.906770 -70.290478 65.600576 -75.932395 30.975306 8.787261 15.949127 -0.046557 -0.216354 0.012447
-191.077335 49.172511 11.088818 178.476164 -31.226004 -4.014525 0.334020 19.111178 2.289136 -0.005886 2.254187 0.223360 0.022993 3.730345 0.393081 0.318853 16.552344 1.810811 2.906020 16.039637 -2.603109 6.365370 -5.727906 -5.824143 -2.786935 -2.529198 -3.093670 3.499585 -10.395232 -12.781621 -41.637057 -55.338163 92.073049 5.919713 8.387104 -16.611025 -0.879178 -2.652620 2.619972 -6.384310 -5.411196 15.021061 106.456353 -77.551391 -142.243521 0.307140 14.026706 8.625939 -2.722144 -52.719263 -5.872500 -153.107128 80.212311 -140.571212 -30.072056 -4.694151 -0.857662 -0.023087 -12.030533 0.276062 -14.846072 -55.115053 18.894879 -70.238481 65.602732 -75.882364 30.981522 8.819561 15.950255 -0.049977 -0.231346 0.005699
-191.074705 49.182162 11.093016 178.498848 -31.204805 -3.999944 0.309851 19.094092 2.267969 0.009202 2.263142 0.238012 0.037767 3.746475 0.410060 0.279294 16.532290 1.783433 2.917937 16.061975 -2.587167 6.370152 -5.693429 -5.800522 -2.769161 -2.536299 -3.093983 3.506171 -10.384733 -12.771570 -41.639578 -55.349152 92.061197 5.931683 8.401839 -16.590038 -0.858212 -2.644118 2.653565 -6.403924 -5.419975 14.984359 106.290565 -77.562225 -142.070773 0.343182 14.037341 8.638382 -2.766898 -52.756314 -5.886806 -153.017200 80.189677 -140.495190 -30.059525 -4.670361 -0.876331 -0.018085 -12.064589 0.276068 -14.842918 -55.135316 18.860240 -70.193842 65.614170 -75.834234 30.974025 8.842602 15.940176 -0.046439 -0.239331 0.005391
